<mxfile host="app.diagrams.net" modified="2021-12-26T20:17:26.204Z" agent="5.0 (X11)" etag="-D0uWIkbED_15Qm6hH0m" compressed="false" version="16.1.0" type="device">
  <diagram id="F9bXzUB8ksQzTE8vyYi5" name="Page-1">
    <mxGraphModel dx="868" dy="480" grid="1" gridSize="10" guides="1" tooltips="1" connect="1" arrows="1" fold="1" page="1" pageScale="1" pageWidth="827" pageHeight="1169" math="0" shadow="0">
      <root>
        <mxCell id="0" />
        <mxCell id="1" parent="0" />
        <mxCell id="TPw4vMUu2TBjclUBCScA-2" value="" style="curved=1;endArrow=oval;html=1;rounded=0;strokeWidth=2;endFill=0;" parent="1" edge="1">
          <mxGeometry width="50" height="50" relative="1" as="geometry">
            <mxPoint x="200" y="200" as="sourcePoint" />
            <mxPoint x="520" y="200" as="targetPoint" />
            <Array as="points">
              <mxPoint x="300" y="160" />
              <mxPoint x="420" y="240" />
            </Array>
          </mxGeometry>
        </mxCell>
        <mxCell id="TPw4vMUu2TBjclUBCScA-3" value="" style="endArrow=classic;html=1;rounded=0;startArrow=oval;startFill=0;" parent="1" edge="1">
          <mxGeometry width="50" height="50" relative="1" as="geometry">
            <mxPoint x="360" y="520" as="sourcePoint" />
            <mxPoint x="200" y="200" as="targetPoint" />
          </mxGeometry>
        </mxCell>
        <mxCell id="TPw4vMUu2TBjclUBCScA-4" value="" style="endArrow=classic;html=1;rounded=0;startArrow=oval;startFill=0;endFill=1;" parent="1" edge="1">
          <mxGeometry width="50" height="50" relative="1" as="geometry">
            <mxPoint x="360" y="520" as="sourcePoint" />
            <mxPoint x="520" y="200" as="targetPoint" />
          </mxGeometry>
        </mxCell>
        <mxCell id="TPw4vMUu2TBjclUBCScA-5" value="i" style="text;html=1;strokeColor=none;fillColor=none;align=center;verticalAlign=middle;whiteSpace=wrap;rounded=0;" parent="1" vertex="1">
          <mxGeometry x="360" y="520" width="20" height="20" as="geometry" />
        </mxCell>
        <mxCell id="TPw4vMUu2TBjclUBCScA-13" value="j" style="text;html=1;strokeColor=none;fillColor=none;align=center;verticalAlign=middle;whiteSpace=wrap;rounded=0;" parent="1" vertex="1">
          <mxGeometry x="520" y="170" width="20" height="20" as="geometry" />
        </mxCell>
        <mxCell id="TPw4vMUu2TBjclUBCScA-14" value="Δt = rj(i)[t] / c" style="text;html=1;strokeColor=none;fillColor=none;align=center;verticalAlign=middle;whiteSpace=wrap;rounded=0;" parent="1" vertex="1">
          <mxGeometry x="310" y="150" width="100" height="20" as="geometry" />
        </mxCell>
        <mxCell id="TPw4vMUu2TBjclUBCScA-15" value="" style="endArrow=classic;html=1;rounded=0;strokeWidth=1;" parent="1" edge="1">
          <mxGeometry width="50" height="50" relative="1" as="geometry">
            <mxPoint x="520" y="200" as="sourcePoint" />
            <mxPoint x="560" y="280" as="targetPoint" />
          </mxGeometry>
        </mxCell>
        <mxCell id="TPw4vMUu2TBjclUBCScA-16" value="&amp;nbsp;&lt;b&gt;a&lt;/b&gt;j(i)[t+Δt]" style="text;html=1;strokeColor=none;fillColor=none;align=center;verticalAlign=middle;whiteSpace=wrap;rounded=0;" parent="1" vertex="1">
          <mxGeometry x="540" y="220" width="70" height="20" as="geometry" />
        </mxCell>
        <mxCell id="TPw4vMUu2TBjclUBCScA-17" value="&lt;b&gt;r&lt;/b&gt;j(i)[t]" style="text;html=1;strokeColor=none;fillColor=none;align=center;verticalAlign=middle;whiteSpace=wrap;rounded=0;" parent="1" vertex="1">
          <mxGeometry x="230" y="360" width="50" height="20" as="geometry" />
        </mxCell>
        <mxCell id="TPw4vMUu2TBjclUBCScA-18" value="&amp;nbsp;&lt;b&gt;r&lt;/b&gt;j(i)[t+Δt]" style="text;html=1;strokeColor=none;fillColor=none;align=center;verticalAlign=middle;whiteSpace=wrap;rounded=0;" parent="1" vertex="1">
          <mxGeometry x="440" y="360" width="70" height="20" as="geometry" />
        </mxCell>
        <mxCell id="CJhlM03fXAwKemSloWM0-2" value="" style="curved=1;endArrow=none;html=1;rounded=0;dashed=1;dashPattern=1 1;strokeWidth=1;endFill=0;" edge="1" parent="1">
          <mxGeometry width="50" height="50" relative="1" as="geometry">
            <mxPoint x="360" y="520" as="sourcePoint" />
            <mxPoint x="520" y="200" as="targetPoint" />
            <Array as="points">
              <mxPoint x="310" y="400" />
              <mxPoint x="320" y="330" />
              <mxPoint x="380" y="310" />
              <mxPoint x="430" y="240" />
            </Array>
          </mxGeometry>
        </mxCell>
        <mxCell id="CJhlM03fXAwKemSloWM0-3" value="" style="endArrow=classic;html=1;rounded=0;dashed=1;dashPattern=1 1;strokeWidth=1;" edge="1" parent="1">
          <mxGeometry width="50" height="50" relative="1" as="geometry">
            <mxPoint x="440" y="440" as="sourcePoint" />
            <mxPoint x="320" y="400" as="targetPoint" />
          </mxGeometry>
        </mxCell>
        <mxCell id="CJhlM03fXAwKemSloWM0-4" value="front of interaction effect " style="text;html=1;strokeColor=none;fillColor=none;align=center;verticalAlign=middle;whiteSpace=wrap;rounded=0;" vertex="1" parent="1">
          <mxGeometry x="440" y="430" width="160" height="25" as="geometry" />
        </mxCell>
      </root>
    </mxGraphModel>
  </diagram>
</mxfile>
